<svg xmlns="http://www.w3.org/2000/svg" width="100" height="100" viewBox="0 0 100 100">
  <defs>
    <style>
      .cls-1 {
        fill-rule: evenodd;
      }
    </style>
  </defs>
  <path id="MINTED_" data-name="MINTED " class="cls-1" d="M51,101a50,50,0,1,1,50-50A50,50,0,0,1,51,101Zm0-9.091A40.909,40.909,0,1,0,10.091,51,40.909,40.909,0,0,0,51,91.909Zm0-63.636V19.182A31.818,31.818,0,0,1,82.818,51H73.727A22.727,22.727,0,0,0,51,28.273Zm0,36.364A13.636,13.636,0,1,1,64.636,51,13.636,13.636,0,0,1,51,64.636Zm0-9.091A4.545,4.545,0,1,0,46.455,51,4.545,4.545,0,0,0,51,55.545Z" transform="translate(-1 -1)"/>
</svg>
