<svg xmlns="http://www.w3.org/2000/svg" width="114.957" height="125.09" viewBox="0 0 114.957 125.09">
  <defs>
    <style>
      .cls-1 {
        fill: #292929;
      }
    </style>
  </defs>
  <g id="MXV_VERIFIED" data-name="MXV VERIFIED" transform="translate(-36.867)">
    <g id="Group_553" data-name="Group 553" transform="translate(36.867)">
      <path id="Path_728" data-name="Path 728" class="cls-1" d="M151.794,27.767l-.167-3.918-3.9-.4c-14.983-1.539-27.865-7.13-36.032-11.55A94.174,94.174,0,0,1,97.277,2.474L94.348,0l-2.93,2.471A94.147,94.147,0,0,1,77,11.9c-8.168,4.42-21.049,10.011-36.032,11.55l-3.9.4L36.9,27.766a119.451,119.451,0,0,0,5.78,37.644,103.672,103.672,0,0,0,16.3,31.8,91.075,91.075,0,0,0,33.414,26.948l1.954.934,1.954-.934a91.07,91.07,0,0,0,33.414-26.948,103.668,103.668,0,0,0,16.3-31.8A119.459,119.459,0,0,0,151.794,27.767ZM94.345,115.009a81.858,81.858,0,0,1-28.06-23.175A94.46,94.46,0,0,1,51.41,62.949a117.038,117.038,0,0,1-5.424-30.993A100.862,100.862,0,0,0,64.1,27.476a115.955,115.955,0,0,0,17.439-7.726,112.965,112.965,0,0,0,12.8-8.082,112.994,112.994,0,0,0,12.8,8.082,115.943,115.943,0,0,0,17.439,7.726,100.858,100.858,0,0,0,18.121,4.48,116.563,116.563,0,0,1-5.338,30.705,94.636,94.636,0,0,1-14.858,29.031A81.855,81.855,0,0,1,94.345,115.009Z" transform="translate(-36.867)"/>
      <path id="Path_729" data-name="Path 729" class="cls-1" d="M321.8,305.016l-6.327,6.328-23.581,23.581-11.951-11.951-1.625-1.625-3.206,3.206h0l-3.207,3.207,19.989,19.989,36.322-36.321Z" transform="translate(-239.605 -263.101)"/>
    </g>
  </g>
</svg>
