<svg xmlns="http://www.w3.org/2000/svg" width="100" height="100" viewBox="0 0 100 100">
  <defs>
    <style>
      .cls-1 {
        fill: #292929;
      }
    </style>
  </defs>
  <path id="SHARE" class="cls-1" d="M20.833,29.167A20.833,20.833,0,1,1,0,50,20.836,20.836,0,0,1,20.833,29.167ZM67.175,79.438a16.442,16.442,0,0,0-.508,3.9A16.8,16.8,0,1,0,71.1,72.088L40.56,56.848c-.958,2.65-1.611,3.855-4.215,7.031ZM100,16.667a16.667,16.667,0,1,0-33.333,0,16.442,16.442,0,0,0,.508,3.9L36.833,36.7a27.293,27.293,0,0,1,4.02,7.043L71.1,27.912A16.617,16.617,0,0,0,100,16.667Z"/>
</svg>
