<svg xmlns="http://www.w3.org/2000/svg" width="39.896" height="39.928" viewBox="0 0 39.896 39.928">
  <g id="Artist" transform="translate(-0.203 0.001)">
    <g id="Group_982" data-name="Group 982" transform="translate(0.203 -0.001)">
      <g id="Group_981" data-name="Group 981" transform="translate(0 0)">
        <path id="Path_1113" data-name="Path 1113" d="M28.795,2.662A9.1,9.1,0,0,0,13.253,9.251L3.87,21.564l-.006.008a4.326,4.326,0,0,0-.376,4.557l-2.9,2.9a1.3,1.3,0,0,0,1.84,1.84l2.9-2.9a4.324,4.324,0,0,0,4.557-.376l.008-.006L22.206,18.2a9.1,9.1,0,0,0,6.588-2.662h0A9.117,9.117,0,0,0,28.795,2.662ZM8.321,25.514a1.7,1.7,0,0,1-2.378-2.377l8.763-11.5,5.113,5.113ZM22.348,15.6,15.856,9.108A6.51,6.51,0,0,1,16.93,5.517l9.01,9.01A6.513,6.513,0,0,1,22.348,15.6Zm5.434-2.912L18.768,3.675a6.505,6.505,0,0,1,9.014,9.014Z" transform="translate(-0.203 0.001)"/>
      </g>
    </g>
    <g id="Group_984" data-name="Group 984" transform="translate(11.855 15.16)">
      <g id="Group_983" data-name="Group 983">
        <path id="Path_1114" data-name="Path 1114" d="M153.682,194.787a1.3,1.3,0,0,0-1.84,0l-1.84,1.84a1.3,1.3,0,1,0,1.84,1.84l1.84-1.84A1.3,1.3,0,0,0,153.682,194.787Z" transform="translate(-149.622 -194.406)"/>
      </g>
    </g>
    <g id="Group_986" data-name="Group 986" transform="translate(17.549 15.643)">
      <g id="Group_985" data-name="Group 985">
        <path id="Path_1115" data-name="Path 1115" d="M244.612,200.818a1.3,1.3,0,0,0-1.213-.131l-13.01,5.2a1.3,1.3,0,0,0-.818,1.208v10.394a5.692,5.692,0,0,0-2.168-.42c-2.73,0-4.77,1.8-4.77,3.9s2.042,3.9,4.77,3.9,4.77-1.8,4.77-3.9v-7.792l10.408-4.163v5.871a5.692,5.692,0,0,0-2.168-.42c-2.732,0-4.77,1.8-4.77,3.9s2.058,3.9,4.77,3.9c2.732,0,4.77-1.8,4.77-3.9V201.9A1.3,1.3,0,0,0,244.612,200.818ZM227.4,222.277c-1.241,0-2.168-.687-2.168-1.3s.927-1.3,2.168-1.3,2.168.687,2.168,1.3S228.645,222.277,227.4,222.277Zm15.178-16.059-10.408,4.163v-2.4l10.408-4.163Zm-2.168,13.457c-1.241,0-2.168-.687-2.168-1.3s.927-1.3,2.168-1.3,2.168.687,2.168,1.3S241.655,219.675,240.414,219.675Z" transform="translate(-222.634 -200.594)"/>
      </g>
    </g>
  </g>
</svg>
