<svg xmlns="http://www.w3.org/2000/svg" width="39.928" height="39.928" viewBox="0 0 39.928 39.928">
  <path id="collector" d="M19.964,13.309a6.655,6.655,0,1,0,6.655,6.655A6.655,6.655,0,0,0,19.964,13.309Zm0,9.982a3.327,3.327,0,1,1,3.327-3.327A3.331,3.331,0,0,1,19.964,23.291Zm0-19.964A16.637,16.637,0,1,1,3.327,19.964,16.655,16.655,0,0,1,19.964,3.327Zm0-3.327A19.964,19.964,0,1,0,39.928,19.964,19.965,19.965,0,0,0,19.964,0Zm7.769,7.189a15.051,15.051,0,0,1,5.006,5.006l-4.6,2.046a10.035,10.035,0,0,0-2.449-2.447ZM12.195,32.739a15.056,15.056,0,0,1-5-5l4.6-2.046a10,10,0,0,0,2.447,2.447l-2.046,4.6Z" fill="#1e1e1e"/>
</svg>
