<svg id="MXV_W" data-name="MXV W" xmlns="http://www.w3.org/2000/svg" width="60" height="12.857" viewBox="0 0 60 12.857">
  <defs>
    <style>
      .cls-1 {
        fill: #fff;
      }
    </style>
  </defs>
  <g id="Layer_1" data-name="Layer 1">
    <circle id="Ellipse_1" data-name="Ellipse 1" class="cls-1" cx="1.589" cy="1.589" r="1.589" transform="translate(1.055 9.399)"/>
    <path id="Path_1" data-name="Path 1" class="cls-1" d="M354.767,12.855l-6.693-.03-2.45-3.483-3.1,3.483H335.6l.61-.686L346.966,0h7.057l0,.927c-.159.006-.289.006-.378,0a1.064,1.064,0,0,0-.28.012.7.7,0,0,0-.269.127l-.419.423c-.571.579-1,1.055-1.792,1.959-.427.485-.906,1.032-1.429,1.633l4.42,6.422a1.759,1.759,0,0,0,.9.408Z" transform="translate(-314.557 0.002)"/>
    <path id="Path_2" data-name="Path 2" class="cls-1" d="M667.87,0h6.1l6.164,12.827h-5.755c-.37-.791-5.156-10.986-5.549-11.513a1.121,1.121,0,0,0-.335-.3,1.03,1.03,0,0,0-.623-.1Z" transform="translate(-626.021 0.002)"/>
    <path id="Path_3" data-name="Path 3" class="cls-1" d="M191,11.9l.007.892H184.08l.016-.936a.661.661,0,0,0,.389-.171.8.8,0,0,0,.223-.634q.077-4.982.021-10.066-.005-.51-.013-1.02h6.69L191.385.9a2.477,2.477,0,0,0-.327,0,.719.719,0,0,0-.521.17.682.682,0,0,0-.135.539l-.013,9.433a.842.842,0,0,0,.118.513A.793.793,0,0,0,191,11.9Z" transform="translate(-172.608 0.03)"/>
    <path id="Path_4" data-name="Path 4" class="cls-1" d="M6.486.011c.494,1.028.926,2,1.421,2.938.97,1.839,1.967,3.664,2.975,5.481A.526.526,0,0,1,10.8,9.1L8.5,12.173c-.07.094-.145.183-.209.28-.339.51-.61.5-.909-.024C6.337,10.6,5.3,8.76,4.238,6.939,3.1,4.994,1.94,3.064.787,1.13A.742.742,0,0,0,.594.916.862.862,0,0,0,0,.773L0,0Z" transform="translate(0 0.002)"/>
    <path id="Path_5" data-name="Path 5" class="cls-1" d="M329.91,0h6.877l1.382,1.77q-1.609,1.656-3.194,3.451-.183.206-.361.411a.269.269,0,0,1-.177.08.284.284,0,0,1-.228-.122c-1.752-2.319-3.023-4-3.222-4.287a.887.887,0,0,0-.317-.289.861.861,0,0,0-.421-.1l-.319,0Q329.92.462,329.91,0Z" transform="translate(-309.343 0.002)"/>
    <path id="Path_6" data-name="Path 6" class="cls-1" d="M841.9,0h7.53V.868a1.432,1.432,0,0,0-.793.2,1.352,1.352,0,0,0-.436.446c-.206.328-1.069,1.982-2.2,4.272l-.386.741a.305.305,0,0,1-.187.1A.345.345,0,0,1,845.1,6.4Z" transform="translate(-789.43 0.002)"/>
  </g>
</svg>
