<svg id="image-svgrepo-com_1_" data-name="image-svgrepo-com (1)" xmlns="http://www.w3.org/2000/svg" width="32.883" height="25.065" viewBox="0 0 32.883 25.065">
  <defs>
    <style>
      .cls-1 {
        fill: #505050;
      }
    </style>
  </defs>
  <g id="Group_1760" data-name="Group 1760" transform="translate(0 0)">
    <g id="Group_1757" data-name="Group 1757">
      <path id="Path_1736" data-name="Path 1736" class="cls-1" d="M30.176,76.478h-.739V75.74a3.156,3.156,0,0,0-3.153-3.153H3.653A3.157,3.157,0,0,0,.5,75.74V90.553a3.157,3.157,0,0,0,3.153,3.153h.739v.739A3.157,3.157,0,0,0,7.544,97.6H30.176a3.157,3.157,0,0,0,3.153-3.153V79.631A3.157,3.157,0,0,0,30.176,76.478Zm.83,17.966a.83.83,0,0,1-.83.83H7.544a.83.83,0,0,1-.83-.83V79.631a.83.83,0,0,1,.83-.83H30.176a.83.83,0,0,1,.83.83V94.445ZM2.823,90.553V75.74a.83.83,0,0,1,.83-.83H26.285a.83.83,0,0,1,.83.83v.739H7.544a3.157,3.157,0,0,0-3.153,3.153V91.383H3.653A.83.83,0,0,1,2.823,90.553Z" transform="translate(-0.473 -72.56)"/>
      <path id="Path_1737" data-name="Path 1737" class="cls-1" d="M29.7,97.152H7.071a3.184,3.184,0,0,1-3.18-3.18V93.26H3.18A3.184,3.184,0,0,1,0,90.08V75.267a3.184,3.184,0,0,1,3.18-3.18H25.812a3.184,3.184,0,0,1,3.18,3.18v.711H29.7a3.184,3.184,0,0,1,3.18,3.18V93.972A3.184,3.184,0,0,1,29.7,97.152ZM3.18,72.141A3.129,3.129,0,0,0,.054,75.267V90.08A3.129,3.129,0,0,0,3.18,93.206h.766v.766A3.129,3.129,0,0,0,7.072,97.1H29.7a3.129,3.129,0,0,0,3.126-3.126V79.159A3.129,3.129,0,0,0,29.7,76.033h-.766v-.766a3.129,3.129,0,0,0-3.126-3.126H3.18ZM29.7,94.829H7.072a.858.858,0,0,1-.857-.857V79.159a.858.858,0,0,1,.857-.857H29.7a.858.858,0,0,1,.857.857V93.972A.858.858,0,0,1,29.7,94.829ZM7.072,78.356a.8.8,0,0,0-.8.8V93.972a.8.8,0,0,0,.8.8H29.7a.8.8,0,0,0,.8-.8V79.159a.8.8,0,0,0-.8-.8ZM3.946,90.937H3.18a.858.858,0,0,1-.857-.857V75.267a.858.858,0,0,1,.857-.857H25.812a.858.858,0,0,1,.857.857v.766H7.072a3.129,3.129,0,0,0-3.126,3.126V90.937ZM3.18,74.464a.8.8,0,0,0-.8.8V90.08a.8.8,0,0,0,.8.8h.711V79.159a3.184,3.184,0,0,1,3.18-3.18H26.615v-.711a.8.8,0,0,0-.8-.8H3.18Z" transform="translate(0 -72.087)"/>
    </g>
    <g id="Group_1758" data-name="Group 1758" transform="translate(7.819 12.712)">
      <path id="Path_1738" data-name="Path 1738" class="cls-1" d="M164.059,313.535l-.764-.764-3.7-3.7a.83.83,0,0,0-1.173,0l-2.1,2.1-3.929-3.929a.83.83,0,0,0-1.173,0l-5.841,5.841-.451.451a.83.83,0,0,0,0,1.173l.469.469a.83.83,0,0,0,1.173,0l.932-.932,1.162-1.162,2.555-2.555a.83.83,0,0,1,1.173,0l2.555,2.555,1.162,1.162.932.932a.83.83,0,0,0,1.173,0l.469-.469a.83.83,0,0,0,0-1.173l-.451-.451-.269-.269,1.047-1.047,1.316,1.316,1.162,1.162.932.932a.83.83,0,0,0,1.173,0l.469-.469a.83.83,0,0,0,.056-1.112Q164.089,313.565,164.059,313.535Z" transform="translate(-144.653 -306.973)"/>
      <path id="Path_1739" data-name="Path 1739" class="cls-1" d="M157.152,314.977a.866.866,0,0,1-.155-.014.851.851,0,0,1-.451-.237l-4.649-4.649a.8.8,0,0,0-1.135,0l-4.649,4.649a.851.851,0,0,1-.451.237.868.868,0,0,1-.31,0,.852.852,0,0,1-.451-.237l-.469-.469a.85.85,0,0,1-.241-.478.861.861,0,0,1,.241-.734l6.292-6.292a.857.857,0,0,1,1.212,0l3.91,3.91,2.084-2.084a.857.857,0,0,1,1.212,0l4.466,4.466c.02.02.039.041.058.063a.854.854,0,0,1-.058,1.148l-.469.469a.856.856,0,0,1-.606.251h0a.857.857,0,0,1-.606-.251l-3.391-3.391-1.009,1.009.7.7a.861.861,0,0,1,.241.734.85.85,0,0,1-.241.478l-.469.469a.851.851,0,0,1-.451.237A.873.873,0,0,1,157.152,314.977Zm-5.822-5.189a.851.851,0,0,1,.606.251l4.649,4.649a.8.8,0,0,0,.423.222.811.811,0,0,0,.29,0,.8.8,0,0,0,.422-.222l.469-.469a.8.8,0,0,0,.226-.448.807.807,0,0,0-.226-.687l-.739-.739,1.085-1.085,3.429,3.429a.8.8,0,0,0,.4.217.8.8,0,0,0,.738-.217l.469-.469a.8.8,0,0,0,.054-1.076c-.017-.021-.035-.041-.054-.06l-4.466-4.466a.8.8,0,0,0-1.135,0l-2.122,2.122-3.948-3.948a.8.8,0,0,0-1.135,0l-6.292,6.292a.806.806,0,0,0-.226.687.8.8,0,0,0,.226.448l.469.469a.8.8,0,0,0,.423.222.811.811,0,0,0,.29,0,.8.8,0,0,0,.423-.222l4.649-4.649A.851.851,0,0,1,151.33,309.788Z" transform="translate(-144.182 -306.502)"/>
    </g>
    <g id="Group_1759" data-name="Group 1759" transform="translate(22.246 7.447)">
      <path id="Path_1740" data-name="Path 1740" class="cls-1" d="M415.081,210.124a3.21,3.21,0,1,0,1.162.787A3.185,3.185,0,0,0,415.081,210.124Zm-1.167,3.859a.878.878,0,1,1,.878-.878A.878.878,0,0,1,413.913,213.983Z" transform="translate(-410.685 -209.877)"/>
      <path id="Path_1741" data-name="Path 1741" class="cls-1" d="M413.439,215.86a3.218,3.218,0,1,1,1.177-.222A3.232,3.232,0,0,1,413.439,215.86Zm0-6.4a3.164,3.164,0,1,0,1.157.218A3.178,3.178,0,0,0,413.439,209.457Zm0,4.079a.905.905,0,1,1,.905-.905A.906.906,0,0,1,413.439,213.537Zm0-1.756a.851.851,0,1,0,.851.851A.852.852,0,0,0,413.439,211.781Z" transform="translate(-410.211 -209.403)"/>
    </g>
  </g>
</svg>
