<svg id="file-audio" xmlns="http://www.w3.org/2000/svg" width="22.356" height="27.946" viewBox="0 0 22.356 27.946">
  <defs>
    <style>
      .cls-1 {
        fill: #505050;
        fill-rule: evenodd;
      }
    </style>
  </defs>
  <path id="Shape" class="cls-1" d="M6.795,2H20.767l5.589,5.589V27.151a2.794,2.794,0,0,1-2.795,2.795H6.795A2.8,2.8,0,0,1,4,27.151V4.795A2.8,2.8,0,0,1,6.795,2ZM19.61,4.795H6.795V27.151H23.562V8.747H19.61Zm-.24,14.092V14.576H13.781v7.685a2.094,2.094,0,1,1-1.4-1.977V13.178a1.4,1.4,0,0,1,1.4-1.4H19.37a1.4,1.4,0,0,1,1.4,1.4v7.685a2.094,2.094,0,1,1-1.4-1.977Z" transform="translate(-4 -2)"/>
</svg>
